<?xml version="1.0" encoding="utf-8"?>
<!-- Generator: Adobe Illustrator 25.2.0, SVG Export Plug-In . SVG Version: 6.00 Build 0)  -->
<svg version="1.1" id="OBJECTS" xmlns="http://www.w3.org/2000/svg" xmlns:xlink="http://www.w3.org/1999/xlink" x="0px" y="0px"
	 viewBox="0 0 381.60001 424" enable-background="new 0 0 381.60001 424" xml:space="preserve">
<g>
	<linearGradient id="SVGID_1_" gradientUnits="userSpaceOnUse" x1="190.8" y1="131.44" x2="190.8" y2="422.33496">
		<stop  offset="0" style="stop-color:#842990"/>
		<stop  offset="1" style="stop-color:#2A0077"/>
	</linearGradient>
	<rect fill="url(#SVGID_1_)" width="381.60001" height="424"/>
	<g>
		<path opacity="0.2" fill="#5F1D67" d="M411.7128,99.8808c1.15878-2.72,1.80121-5.7129,1.80121-8.8563
			c0-4.0575-1.07382-7.8622-2.94492-11.15459c0.6048-2.04041,0.9346-4.1992,0.9346-6.43591
			c0-12.4906-10.12579-22.6163-22.61639-22.6163c-9.28119,0-17.25259,5.5929-20.73831,13.5904
			c-2.92868-3.9687-7.62418-6.5542-12.935-6.5542c-8.2023,0-14.9567,6.1446-15.94498,14.0793
			c-0.04633-0.0004-0.09122-0.0069-0.13773-0.0069c-3.88828,0-7.45419,1.3801-10.23489,3.6769
			c-1.79749-4.229-5.98889-7.195-10.87381-7.195c-2.67688,0-5.13748,0.90099-7.11829,2.4021
			c-5.50479-5.5196-13.11771-8.9358-21.52908-8.9358c-2.04712,0-4.04572,0.2057-5.9794,0.5913
			c-5.52103-7.661-14.51401-12.6533-24.67831-12.6533c-14.4903,0-26.6048,10.1391-29.657,23.7077
			c-3.8998-3.1941-8.88521-5.112-14.31931-5.112c-3.80589,0-7.3898,0.9444-10.5369,2.605
			c-4.04889-6.1115-10.98439-10.1438-18.8644-10.1438c-7.23741,0-13.6756,3.4036-17.81531,8.6928
			c-3.2328-2.1095-7.03529-3.418-11.1295-3.6339c-2.10179-6.4359-8.14499-11.0899-15.28279-11.0899
			c-3.5506,0-6.82141,1.1645-9.4819,3.113c-4.1478-4.8265-10.2922-7.8876-17.1552-7.8876
			c-12.4906,0-22.61639,10.1257-22.61639,22.6164c0,0.0075,0.0006,0.0149,0.0006,0.0224
			c-9.1694,1.4321-16.5077,8.3739-18.5349,17.3321c-3.2253-1.7706-6.9279-2.7795-10.8669-2.7795
			c-3.8581,0-7.4893,0.9684-10.6675,2.6718c-1.6237-6.6736-7.6235-11.63461-14.7969-11.63461
			c-5.3271,0-10.0098,2.7366-12.7355,6.8763c-3.721-2.6898-8.2893-4.2796-13.2315-4.2796c-5.4354,0-10.4219,1.9189-14.3221,5.1143
			c-7.1122-10.7039-19.2739-17.7627-33.0885-17.7627c-21.928,0-39.7043,17.7763-39.7043,39.7043
			c0,21.92809,17.7763,39.7044,39.7043,39.7044c16.4566,0,30.5742-10.01241,36.5952-24.2774
			c3.2129,1.7528,6.8976,2.7499,10.8154,2.7499c4.1022,0,7.9458-1.0978,11.2629-3.0072
			c3.2889,8.42641,11.4795,14.39909,21.0702,14.39909c5.6233,0,10.763-2.0569,14.7195-5.45329
			c1.4171,0.27809,2.8803,0.42751,4.3788,0.42751c4.4272,0,8.5539-1.27701,12.0413-3.4756
			c4.1379,5.32359,10.5979,8.7527,17.8625,8.7527c9.289,0,17.26611-5.60201,20.74741-13.61011
			c2.86549,1.3131,6.0496,2.0506,9.4078,2.0506c7.7175,0,14.5285-3.86829,18.6098-9.7688
			c2.20419,10.181,11.2589,17.8102,22.0997,17.8102c8.62939,0,16.1279-4.8344,19.94051-11.94119
			c4.1375,4.55659,10.1086,7.41789,16.74831,7.41789c9.82378,0,18.18118-6.26489,21.30368-15.0163
			c2.4884,9.787,11.35741,17.0267,21.9187,17.0267c6.8475,0,12.97931-3.0473,17.12659-7.8548
			c4.147,5.0984,10.4678,8.3573,17.55191,8.3573c7.32739,0,13.8374-3.4874,17.97021-8.8898
			c2.73279,1.1898,5.74728,1.8536,8.91809,1.8536c4.35489,0,8.41589-1.2489,11.85309-3.4019
			c3.1268,13.4668,15.19211,23.50539,29.61032,23.50539c7.31369,0,14.02298-2.5838,19.26859-6.8862
			c5.3988,4.90311,12.56821,7.8914,20.4357,7.8914c16.793,0,30.4064-13.6134,30.4064-30.40649
			C416.2782,110.0215,414.60379,104.5338,411.7128,99.8808z"/>
		<linearGradient id="SVGID_2_" gradientUnits="userSpaceOnUse" x1="242.45969" y1="-11.4757" x2="242.45969" y2="137.74327">
			<stop  offset="0" style="stop-color:#842990"/>
			<stop  offset="1" style="stop-color:#2A0077"/>
		</linearGradient>
		<path fill="url(#SVGID_2_)" d="M386.04129,34.0293c-17.08521-13.6826-31.19418-16.5982-40.4581-16.9663
			c-26.36429-1.0477-38.58109,17.5402-63.29739,12.3984c-14.84061-3.0873-12.28641-10.1736-28.0596-15.0086
			c-31.76219-9.7361-46.1033,17.7768-75.69589,8.4831c-16.3576-5.1371-21.4183-16.509-41.1107-16.9663
			c-9.5616-0.222-12.0047,2.3746-20.229,1.3051C98.4372,4.8361,80.9502-12.5906,81.9529-19.4798
			c1.8774-12.9003,72.9994-19.18,321.05469-2.6102C397.3522-3.3836,391.69681,15.3228,386.04129,34.0293z"/>
		<linearGradient id="SVGID_3_" gradientUnits="userSpaceOnUse" x1="167.427" y1="101.10847" x2="167.427" y2="343.80829">
			<stop  offset="0" style="stop-color:#842990"/>
			<stop  offset="1" style="stop-color:#2A0077"/>
		</linearGradient>
		<path fill="url(#SVGID_3_)" d="M441.70901,175.1852c-43.18652-26.744-75.55832-28.6689-97.18912-25.4388
			c-56.6857,8.4648-95.9164,60.7406-129.1505,44.3548c-8.0433-3.96559-20.83482-14.46719-41.09351-15.0024
			c-9.67349-0.2554-10.65979,2.036-19.5683,1.3047c-21.6194-1.7747-25.76169-16.0865-41.7455-17.6116
			c-17.0093-1.6227-21.28709,13.7282-43.0503,19.5683c-22.1962,5.9565-39.9863-4.04289-54.139-8.47949
			c-24.074-7.54681-62.0792-6.66351-122.62781,31.9614c51.5354-15.3224,89.8782-12.57561,115.4528-7.175
			c30.4716,6.43471,47.5173,17.6293,88.7096,20.2205c34.2999,2.1577,35.72479-4.7711,61.3138-1.3045
			c53.8839,7.2999,59.66521,39.6619,92.62331,38.48431c44.4519-1.58841,52.5726-61.12442,110.88678-78.27312
			c30.10519-8.8531,58.9343-2.0999,78.92551,5.21831"/>
		<linearGradient id="SVGID_4_" gradientUnits="userSpaceOnUse" x1="154.8416" y1="186.51241" x2="154.8416" y2="353.76047">
			<stop  offset="0" style="stop-color:#842990"/>
			<stop  offset="1" style="stop-color:#2A0077"/>
		</linearGradient>
		<path fill="url(#SVGID_4_)" d="M413.11148,372.99741c-48.0376-19.84171-77.59958-17.56351-96.01559-11.24899
			c-10.6666,3.65738-17.09338,8.4971-31.60019,10.22638c-26.52798,3.1622-38.22099-9.06619-61.9846-13.29428
			c-44.87389-7.9841-61.2343,25.2905-99.6619,18.9187c-34.8526-5.7789-36.72269-35.69232-71.1003-54.711
			c-25.4118-14.0585-70.4725-23.20792-156.1772,4.6019c81.1708-34.67172,131.4399-35.00742,162.862-28.1225
			c15.4312,3.38107,35.7477,10.56979,65.0232,7.6698c29.06319-2.87912,38.3449-12.867,66.84635-11.76041
			c25.54445,0.992,26.60555,9.34549,48.61554,9.71509c33.09372,0.5556,45.06192-18.08841,74.13861-24.5433
			c19.7597-4.3866,50.29599-3.7825,95.40808,21.4754L413.11148,372.99741z"/>
		<g display="none">
			<path display="inline" opacity="0.3" fill="#D84774" d="M284.0123,227.1132c2.23041-6.63191,8.39691-10.82921,15.02438-10.8674
				c1.71533-0.0096,3.46072,0.2585,5.17642,0.83519c0.5921,0.19901,1.16458,0.4297,1.71649,0.68781
				c4.20859,1.9767,7.21991,5.63341,8.4873,9.87379c0.7334,2.4552,0.88321,5.10661,0.3414,7.74101
				c-0.12891,0.63339-0.29941,1.26549-0.5105,1.89299c-2.80722,8.347-11.85159,12.8387-20.20081,10.03221
				c-1.3457-0.45241-2.59079-1.06721-3.7226-1.81461c-1.24731-0.8246-2.3559-1.81151-3.30591-2.92101
				c-1.24258-1.4525-2.21298-3.1156-2.86829-4.90089c-0.5368-1.46631-0.86169-3.01691-0.94861-4.60091
				C283.0921,231.1076,283.3472,229.09061,284.0123,227.1132z"/>
			<path display="inline" opacity="0.3" fill="#D84774" d="M282.2356,226.5159c2.49249-7.4111,9.3837-12.10181,16.7901-12.1445
				c1.9169-0.0108,3.86749,0.28889,5.7847,0.9333c0.66171,0.2224,1.30161,0.4803,1.91821,0.76869
				c4.70328,2.20911,8.06848,6.2955,9.48489,11.0343c0.81949,2.74361,0.98691,5.70671,0.38141,8.65071
				c-0.14401,0.70779-0.33463,1.4142-0.5704,2.11539c-3.13712,9.328-13.24451,14.34761-22.5748,11.21121
				c-1.50391-0.50551-2.89542-1.19261-4.16022-2.02791c-1.3938-0.9214-2.63269-2.02429-3.6944-3.26421
				c-1.38858-1.6232-2.47308-3.48169-3.20529-5.47679c-0.60001-1.6387-0.9631-3.37151-1.06009-5.14171
				C281.20731,230.9799,281.4924,228.72569,282.2356,226.5159z"/>
			<path display="inline" fill="#2E3192" d="M285.89331,227.7455c1.95279-5.8067,7.35208-9.4819,13.155-9.5153
				c1.50189-0.0085,3.03018,0.2263,4.53229,0.7312c0.51849,0.1743,1.01981,0.37631,1.50299,0.60231
				c3.68491,1.73079,6.32159,4.9325,7.4313,8.64529c0.64212,2.1497,0.77332,4.47121,0.29889,6.77789
				c-0.11288,0.5545-0.26218,1.108-0.4469,1.65741c-2.45798,7.3085-10.37708,11.2413-17.68738,8.784
				c-1.17831-0.396-2.26849-0.9344-3.25949-1.5889c-1.0921-0.72191-2.06271-1.586-2.89462-2.5574
				c-1.08798-1.2719-1.93759-2.728-2.51138-4.2912c-0.47-1.28391-0.75452-2.6416-0.83051-4.0285
				C285.08759,231.2429,285.311,229.47681,285.89331,227.7455z"/>
		</g>
		<path opacity="0.4" fill="#AF4696" d="M289.24771,62.8514c2.11658-2.1166,37.5766-29.9117,37.5766-29.9117
			s-27.7951,35.46-29.91171,37.5766s-5.54831,2.1166-7.66489,0C287.1311,68.3997,287.1311,64.968,289.24771,62.8514z"/>
		<path opacity="0.4" fill="#AF4696" d="M36.5676,204.5293c2.1166-2.11659,37.5766-29.9117,37.5766-29.9117
			s-27.7951,35.46001-29.91171,37.5766c-2.1166,2.11661-5.5483,2.11661-7.6649,0C34.451,210.07761,34.451,206.6459,36.5676,204.5293
			z"/>
		<path opacity="0.4" fill="#AF4696" d="M108.778,56.5582c0.99-0.99,17.5757-13.9906,17.5757-13.9906
			s-13.0006,16.5857-13.9906,17.5757c-0.99,0.99-2.5951,0.99-3.5851,0C107.788,59.1533,107.788,57.5482,108.778,56.5582z"/>
		<path opacity="0.4" fill="#AF4696" d="M220.70171,363.70419c0.98999-0.98999,17.5757-13.9906,17.5757-13.9906
			s-13.00061,16.58569-13.9906,17.57571c-0.99001,0.98999-2.59511,0.98999-3.5851,0
			C219.7117,366.29929,219.7117,364.69421,220.70171,363.70419z"/>
		<g>
			
				<linearGradient id="SVGID_5_" gradientUnits="userSpaceOnUse" x1="134.16885" y1="533.75397" x2="134.16885" y2="602.65582" gradientTransform="matrix(0.9479 0.3187 -0.3187 0.9479 110.2247 -234.85429)">
				<stop  offset="0" style="stop-color:#D84774"/>
				<stop  offset="0.54465" style="stop-color:#92278F"/>
				<stop  offset="1" style="stop-color:#00007A"/>
			</linearGradient>
			<path fill="url(#SVGID_5_)" d="M91.5693,360.1261c-5.2799,15.6991-19.8774,25.63531-35.5663,25.72562
				c-4.0605,0.02289-8.1924-0.61182-12.2538-1.97702c-1.4016-0.4711-2.757-1.01718-4.0633-1.6283
				c-9.9628-4.67941-17.0913-13.3356-20.0916-23.37369c-1.7361-5.8118-2.0906-12.08841-0.8081-18.32471
				c0.3052-1.4993,0.7088-2.99582,1.2084-4.48111c6.6453-19.7594,28.0556-30.3923,47.82-23.7486
				c3.1856,1.0708,6.1333,2.52621,8.8123,4.29559c2.9527,1.9519,5.5769,4.28821,7.8259,6.91461
				c2.9416,3.43851,5.2388,7.3754,6.7899,11.60159c1.2708,3.47119,2.04,7.14182,2.2456,10.89151
				C93.7475,350.67029,93.1435,355.4451,91.5693,360.1261z"/>
			
				<linearGradient id="SVGID_6_" gradientUnits="userSpaceOnUse" x1="148.40933" y1="535.00891" x2="113.23117" y2="573.04712" gradientTransform="matrix(0.9479 0.3187 -0.3187 0.9479 110.2247 -234.85429)">
				<stop  offset="0" style="stop-color:#D84774"/>
				<stop  offset="0.54465" style="stop-color:#92278F"/>
				<stop  offset="1" style="stop-color:#00007A"/>
			</linearGradient>
			<path fill="url(#SVGID_6_)" d="M84.4528,323.5285c-4.4153,6.06711-11.2074,13.77289-18.7001,16.45538
				c-11.1984,4.01031-32.2658,5.5932-46.1584,18.88882c-1.7361-5.8118-2.0906-12.08841-0.8081-18.32471
				c31.7607-8.20959,49.1196-17.73349,57.8407-23.93411C79.5796,318.5658,82.2038,320.9021,84.4528,323.5285z"/>
			<linearGradient id="SVGID_7_" gradientUnits="userSpaceOnUse" x1="89.53891" y1="343.26102" x2="41.16843" y2="388.39548">
				<stop  offset="0" style="stop-color:#D84774"/>
				<stop  offset="0.54465" style="stop-color:#92278F"/>
				<stop  offset="1" style="stop-color:#00007A"/>
			</linearGradient>
			<path fill="url(#SVGID_7_)" d="M93.4883,346.02161c-3.90179,2.2876-8.7316,5.33429-13.61909,8.9649
				c-10.2417,7.60818-15.5112,18.33279-23.8662,30.8652c-4.0605,0.02289-8.1924-0.61182-12.2538-1.97702
				c-1.4016-0.4711-2.757-1.01718-4.0633-1.6283c13.7816-20.00031,37.8402-37.87949,51.5568-47.1163
				C92.5135,338.60129,93.2827,342.27191,93.4883,346.02161z"/>
		</g>
		<g>
			
				<linearGradient id="SVGID_8_" gradientUnits="userSpaceOnUse" x1="1454.5553" y1="1124.63428" x2="1454.5553" y2="1141.5354" gradientTransform="matrix(0.8038 0.595 -0.595 0.8038 -195.6106 -1544.36926)">
				<stop  offset="0" style="stop-color:#FF3DD8"/>
				<stop  offset="0.71646" style="stop-color:#2E3192"/>
				<stop  offset="1" style="stop-color:#00007A"/>
			</linearGradient>
			<path fill="url(#SVGID_8_)" d="M306.57431,237.7056c-2.41782,3.26511-6.57523,4.4816-10.24341,3.31781
				c-0.94931-0.3013-1.86581-0.76151-2.71051-1.38681c-0.2916-0.21579-0.56659-0.4456-0.82529-0.687
				c-1.9718-1.8443-2.9816-4.4028-2.92392-6.97211c0.03381-1.48759,0.42511-2.97919,1.19553-4.3378
				c0.1843-0.3268,0.3916-0.64569,0.6203-0.95459c3.04318-4.10941,8.84299-4.97411,12.95389-1.931
				c0.66251,0.4904,1.24051,1.0529,1.73209,1.66809c0.54181,0.67841,0.97781,1.42191,1.30441,2.20471
				c0.4267,1.0246,0.66541,2.1169,0.7084,3.22049c0.0343,0.90581-0.06342,1.8206-0.29861,2.7113
				C307.79678,235.66319,307.2951,236.7319,306.57431,237.7056z"/>
			
				<linearGradient id="SVGID_9_" gradientUnits="userSpaceOnUse" x1="1458.04846" y1="1124.94189" x2="1449.41943" y2="1134.27246" gradientTransform="matrix(0.8038 0.595 -0.595 0.8038 -195.6106 -1544.36926)">
				<stop  offset="0" style="stop-color:#FF3DD8"/>
				<stop  offset="0.71646" style="stop-color:#2E3192"/>
				<stop  offset="1" style="stop-color:#00007A"/>
			</linearGradient>
			<path fill="url(#SVGID_9_)" d="M307.6774,228.62691c-1.4888,1.0826-3.65591,2.36789-5.60721,2.42819
				c-2.91629,0.0903-7.95261-1.1315-12.19901,0.92239c0.03381-1.48759,0.42511-2.97919,1.19553-4.3378
				c8.03229,0.4828,12.8028-0.42909,15.30627-1.2175C306.91479,227.1006,307.3508,227.8441,307.6774,228.62691z"/>
			
				<linearGradient id="SVGID_10_" gradientUnits="userSpaceOnUse" x1="1137.49316" y1="1301.64075" x2="1125.62781" y2="1312.71228" gradientTransform="matrix(0.9514 0.3079 -0.3079 0.9514 -374.06161 -1354.99866)">
				<stop  offset="0" style="stop-color:#FF3DD8"/>
				<stop  offset="0.71646" style="stop-color:#2E3192"/>
				<stop  offset="1" style="stop-color:#00007A"/>
			</linearGradient>
			<path fill="url(#SVGID_10_)" d="M308.08719,234.5587c-1.08319,0.2393-2.44049,0.5856-3.8555,1.0638
				c-2.9646,1.00211-5.00449,3.10701-7.90079,5.40091c-0.94931-0.3013-1.86581-0.76151-2.71051-1.38681
				c-0.2916-0.21579-0.56659-0.4456-0.82529-0.687c4.72668-3.6268,11.69189-5.9825,15.5907-7.1022
				C308.4201,232.7532,308.32239,233.668,308.08719,234.5587z"/>
		</g>
		<g>
			<linearGradient id="SVGID_11_" gradientUnits="userSpaceOnUse" x1="337.53033" y1="328.95557" x2="337.53033" y2="376.841">
				<stop  offset="0" style="stop-color:#F79663"/>
				<stop  offset="1" style="stop-color:#D84774"/>
			</linearGradient>
			<path fill="url(#SVGID_11_)" d="M378.35678,330.08929c-0.02328-0.03668-0.0466-0.07339-0.07648-0.10611
				c-2.10452-2.54858-21.5145,5.66022-43.76282,18.54681c-22.55008,13.0593-39.4805,25.9747-37.8136,28.84741
				c0.03912,0.06699,0.0885,0.12979,0.1478,0.18488c2.44922,2.29282,21.68091-5.87628,43.6915-18.62549
				C363.0932,345.8775,380.02368,332.96201,378.35678,330.08929z M339.92319,357.86179
				c-19.68298,11.40021-36.75458,18.95111-38.89658,17.26022c-0.06201-0.04462-0.1109-0.10049-0.1463-0.16422
				c-1.32172-2.2767,14.01849-13.6275,34.25729-25.35291c19.95779-11.55728,37.2276-19.15948,38.9743-17.1853
				c0.02609,0.026,0.04889,0.05582,0.06848,0.08932C375.50211,334.78561,360.1619,346.13641,339.92319,357.86179z"/>
			<g>
				
					<linearGradient id="SVGID_12_" gradientUnits="userSpaceOnUse" x1="402.39227" y1="469.50159" x2="402.39227" y2="504.58572" gradientTransform="matrix(0.9479 0.3187 -0.3187 0.9479 110.2247 -234.85429)">
					<stop  offset="0" style="stop-color:#D84774"/>
					<stop  offset="1" style="stop-color:#AF008F"/>
				</linearGradient>
				<path fill="url(#SVGID_12_)" d="M354.3819,361.99161c-2.68842,7.9939-10.12131,13.05328-18.11002,13.0993
					c-2.06747,0.01169-4.17148-0.31152-6.23947-1.00671c-0.71371-0.2399-1.40381-0.51801-2.069-0.8291
					c-5.07291-2.38269-8.7027-6.79028-10.2305-11.90161c-0.88391-2.95938-1.06442-6.1554-0.41141-9.33078
					c0.1554-0.7634,0.36099-1.52539,0.6153-2.28171c3.38379-10.06131,14.28558-15.47549,24.34949-12.09259
					c1.6221,0.54529,3.12302,1.28629,4.48721,2.18729c1.50339,0.9939,2.83969,2.1835,3.9848,3.5209
					c1.4978,1.75079,2.6676,3.7554,3.45731,5.90729c0.64709,1.76752,1.03879,3.63663,1.14349,5.54593
					C355.491,357.17679,355.1835,359.60818,354.3819,361.99161z"/>
				<linearGradient id="SVGID_13_" gradientUnits="userSpaceOnUse" x1="320.93121" y1="356.14084" x2="348.24249" y2="342.34445">
					<stop  offset="0" style="stop-color:#D84774"/>
					<stop  offset="1" style="stop-color:#AF008F"/>
				</linearGradient>
				<path fill="url(#SVGID_13_)" d="M350.7583,343.3566c-2.2482,3.08929-5.7067,7.01291-9.52191,8.37881
					c-5.70209,2.04199-16.4295,2.84799-23.50348,9.61807c-0.88391-2.95938-1.06442-6.1554-0.41141-9.33078
					c16.1723-4.18021,25.0112-9.02982,29.452-12.18701C348.27689,340.82959,349.61319,342.0192,350.7583,343.3566z"/>
				<linearGradient id="SVGID_14_" gradientUnits="userSpaceOnUse" x1="322.23422" y1="370.35617" x2="351.93872" y2="359.79767">
					<stop  offset="0" style="stop-color:#D84774"/>
					<stop  offset="1" style="stop-color:#AF008F"/>
				</linearGradient>
				<path fill="url(#SVGID_14_)" d="M355.3591,354.80981c-1.98669,1.16479-4.44611,2.71619-6.93469,4.56479
					c-5.21503,3.87399-7.89822,9.3349-12.15253,15.71631c-2.06747,0.01169-4.17148-0.31152-6.23947-1.00671
					c-0.71371-0.2399-1.40381-0.51801-2.069-0.8291c7.01749-10.1839,19.26788-19.2879,26.2522-23.99121
					C354.8627,351.0314,355.25439,352.90051,355.3591,354.80981z"/>
			</g>
			<linearGradient id="SVGID_15_" gradientUnits="userSpaceOnUse" x1="337.66086" y1="329.42429" x2="337.66086" y2="376.86722">
				<stop  offset="0" style="stop-color:#F79663"/>
				<stop  offset="1" style="stop-color:#D84774"/>
			</linearGradient>
			<path fill="url(#SVGID_15_)" d="M340.54318,358.9368c-22.01059,12.74921-41.24228,20.9183-43.6915,18.62549l4.17493-2.44028
				c2.142,1.69089,19.21359-5.86002,38.89658-17.26022c20.23871-11.72537,35.57892-23.07617,34.2572-25.35287
				c-0.01959-0.03351-0.04239-0.06332-0.06848-0.08932l4.1684-2.4364c0.02988,0.03271,0.05319,0.06943,0.07648,0.10611
				C380.02368,332.96201,363.0932,345.8775,340.54318,358.9368z"/>
		</g>
		<path opacity="0.4" fill="#AF4696" d="M262.26559,161.5649c1.57559-1.5753,73.4548-71.70879,74.52029-70.64349
			c1.06561,1.0653-69.08578,72.92599-70.6615,74.50121c-1.57559,1.57529-3.71667,1.98869-4.78229,0.92339
			C260.27649,165.2807,260.69009,163.14011,262.26559,161.5649z"/>
		<path opacity="0.4" fill="#AF4696" d="M14.5228,36.6514c1.5756-1.5753,73.4548-71.7088,74.52029-70.6435
			C90.1087-32.9268,19.9573,38.9339,18.3816,40.5091c-1.5756,1.5753-3.7167,1.9887-4.7823,0.9234S12.9473,38.2266,14.5228,36.6514z"
			/>
		<g>
			<defs>
				<rect id="SVGID_16_" width="636" height="424"/>
			</defs>
			<clipPath id="SVGID_17_">
				<use xlink:href="#SVGID_16_"  overflow="visible"/>
			</clipPath>
		</g>
		<linearGradient id="SVGID_18_" gradientUnits="userSpaceOnUse" x1="23.80545" y1="196.74239" x2="23.80545" y2="297.3558">
			<stop  offset="0" style="stop-color:#842990"/>
			<stop  offset="1" style="stop-color:#2A0077"/>
		</linearGradient>
		<path fill="url(#SVGID_18_)" d="M-100.3091,223.50549c24.2248,27.5256,40.9647,31.47731,51.9016,29.77121
			c11.45-1.7861,17.4887-9.92131,30.9834-7.9373c11.9591,1.7583,13.9988,9.1445,26.9716,11.3593
			c11.8807,2.02841,14.7543-3.3839,27.9757-4.5365c24.9574-2.1757,28.4458,15.9122,52.2399,14.31219
			c14.2212-0.95639,17.7477-7.73859,39.2752-9.0892c7.9066-0.496,14.4749-0.02298,18.8817,0.4747
			c-17.2744-11.1646-32.1323-14.95979-42.6162-16.33739c-21.8963-2.87721-30.63831,4.01259-51.8904-2.1611
			c-15.9406-4.63071-15.3877-9.77521-30.1649-12.5983c-17.7031-3.3822-20.8155,3.55809-41.3223,2.33669
			c-20.3312-1.211-23.9449-8.43039-43.8771-10.2728C-78.3602,217.3102-91.9598,220.7197-100.3091,223.50549z"/>
		<linearGradient id="SVGID_19_" gradientUnits="userSpaceOnUse" x1="122.71835" y1="295.87369" x2="122.71835" y2="458.1412">
			<stop  offset="0" style="stop-color:#842990"/>
			<stop  offset="1" style="stop-color:#2A0077"/>
		</linearGradient>
		<path fill="url(#SVGID_19_)" d="M-77.3525,409.41229c46.925-35.2381,74.4421-35.9765,91.0232-29.7403
			c17.3592,6.52872,24.171,21.24301,45.9623,22.53052c19.3114,1.1409,24.9136-9.76801,45.9622-9.01221
			c19.2766,0.69208,22.0161,10.1087,42.3573,16.22198c38.39684,11.53952,49.7554-15.66599,86.51711-5.40738
			c21.97159,6.13138,25.28778,17.90729,58.57928,27.03659c12.22729,3.353,22.67322,4.75171,29.7403,5.40741
			c-30.70428,11.86618-55.22159,12.9726-72.09758,11.71579c-35.24651-2.62491-46.69991-16.26849-82.011-13.51831
			c-26.4859,2.06281-27.2955,10.3038-51.36961,9.91342c-28.8408-0.46771-31.4565-12.35641-63.9866-17.12311
			c-32.2514-4.72592-40.2656,5.40891-72.0976,1.8024C-44.979,426.26999-65.1774,416.49731-77.3525,409.41229z"/>
		<g>
			<polygon opacity="0.6" fill="#714268" points="243.4207,113.7864 243.8,115.328 245.3416,115.7073 243.8,116.0867 
				243.4207,117.6282 243.04131,116.0867 241.4998,115.7073 243.04131,115.328 			"/>
			<polygon opacity="0.6" fill="#714268" points="371.90601,41.552 372.28531,43.0936 373.8269,43.4729 372.28531,43.8522 
				371.90601,45.3938 371.5267,43.8522 369.98511,43.4729 371.5267,43.0936 			"/>
			<polygon opacity="0.6" fill="#714268" points="219.7485,330.52591 220.12781,332.0675 221.6694,332.4469 220.12781,332.8262 
				219.7485,334.3678 219.3692,332.8262 217.82761,332.4469 219.3692,332.0675 			"/>
			<polygon opacity="0.6" fill="#714268" points="243.52209,39.6311 243.9014,41.1727 245.44299,41.552 243.9014,41.9313 
				243.52209,43.4729 243.14281,41.9313 241.6012,41.552 243.14281,41.1727 			"/>
			<polygon opacity="0.6" fill="#714268" points="373.13,208.15829 373.50931,209.69991 375.0509,210.07919 373.50931,210.4585 
				373.13,212.00011 372.7507,210.4585 371.20911,210.07919 372.7507,209.69991 			"/>
			<polygon opacity="0.6" fill="#714268" points="67.3562,7.722 67.7355,9.2636 69.2771,9.6429 67.7355,10.0222 67.3562,11.5638 
				66.9768,10.0222 65.4353,9.6429 66.9768,9.2636 			"/>
			<polygon opacity="0.6" fill="#714268" points="11.4157,236.2709 11.7951,237.8125 13.3366,238.1918 11.7951,238.57111 
				11.4157,240.1127 11.0364,238.57111 9.4948,238.1918 11.0364,237.8125 			"/>
			<polygon opacity="0.6" fill="#714268" points="352.25461,29.1629 353.03699,32.3423 356.2164,33.1247 353.03699,33.907 
				352.25461,37.0865 351.47229,33.907 348.29291,33.1247 351.47229,32.3423 			"/>
			<polygon opacity="0.6" fill="#714268" points="122.7184,76.5356 123.5007,79.7151 126.6802,80.4974 123.5007,81.2798 
				122.7184,84.4592 121.936,81.2798 118.7566,80.4974 121.936,79.7151 			"/>
			<polygon opacity="0.6" fill="#714268" points="7.6616,19.1243 8.0409,20.6659 9.5825,21.0452 8.0409,21.4246 7.6616,22.9661 
				7.2823,21.4246 5.7407,21.0452 7.2823,20.6659 			"/>
			<polygon opacity="0.6" fill="#714268" points="73.9643,140.5215 74.3436,142.063 75.8852,142.4424 74.3436,142.8217 
				73.9643,144.3633 73.5849,142.8217 72.0433,142.4424 73.5849,142.063 			"/>
			<polygon opacity="0.6" fill="#714268" points="39.4318,120.0811 39.8111,121.6227 41.3527,122.002 39.8111,122.3814 
				39.4318,123.9229 39.0524,122.3814 37.5108,122.002 39.0524,121.6227 			"/>
			<polygon opacity="0.6" fill="#714268" points="304.57809,193.11909 304.9574,194.66071 306.49899,195.03999 304.9574,195.4193 
				304.57809,196.96091 304.19879,195.4193 302.6572,195.03999 304.19879,194.66071 			"/>
		</g>
	</g>
</g>
</svg>
