<?xml version="1.0" encoding="utf-8"?>
<!-- Generator: Adobe Illustrator 25.2.0, SVG Export Plug-In . SVG Version: 6.00 Build 0)  -->
<svg version="1.1" id="OBJECTS" xmlns="http://www.w3.org/2000/svg" xmlns:xlink="http://www.w3.org/1999/xlink" x="0px" y="0px"
	 viewBox="0 0 381.60001 424" enable-background="new 0 0 381.60001 424" xml:space="preserve">
<g>
	<g>
		<linearGradient id="SVGID_1_" gradientUnits="userSpaceOnUse" x1="183.60355" y1="325.85803" x2="183.60355" y2="258.53113">
			<stop  offset="0" style="stop-color:#F15A24;stop-opacity:0"/>
			<stop  offset="1" style="stop-color:#F15A24"/>
		</linearGradient>
		<rect x="170.0948" y="207.2979" fill="url(#SVGID_1_)" width="27.01748" height="129.95509"/>
		<linearGradient id="SVGID_2_" gradientUnits="userSpaceOnUse" x1="183.60345" y1="394.61871" x2="183.60345" y2="288.24463">
			<stop  offset="0" style="stop-color:#F15A24;stop-opacity:0"/>
			<stop  offset="1" style="stop-color:#F15A24"/>
		</linearGradient>
		<rect x="175.9035" y="207.2979" fill="url(#SVGID_2_)" width="15.3999" height="205.32449"/>
		<linearGradient id="SVGID_3_" gradientUnits="userSpaceOnUse" x1="183.30606" y1="270.25821" x2="183.30606" y2="211.29118">
			<stop  offset="0.04146" style="stop-color:#FCEE21"/>
			<stop  offset="0.61328" style="stop-color:#FBB03B"/>
			<stop  offset="0.61931" style="stop-color:#FBAE3B"/>
			<stop  offset="0.791" style="stop-color:#F6812E"/>
			<stop  offset="0.9235" style="stop-color:#F26527"/>
			<stop  offset="1" style="stop-color:#F15A24"/>
		</linearGradient>
		<path fill="url(#SVGID_3_)" d="M185.01999,267.3515c-0.53752,1.32709-1.11447,2.673-1.71529,4.03738
			c-10.5444-23.86488-11.8723-42.17918-11.3586-52.65419c0.06329-1.33339,0.15819-2.53659,0.2688-3.6095
			c0.166-1.66209,0.3716-3.0078,0.5533-4.0188c0.2766-1.4946,0.49809-2.2699,0.49809-2.2699l-0.0159,0.38449l6.5843-0.1241
			l7.43808-0.14259l4.039-0.0806l2.03149-0.0372c0,0,0.2213,0.7753,0.49808,2.2699c0.18187,1.011,0.38728,2.3567,0.55327,4.0188
			c0.1264,1.19701,0.22925,2.5614,0.29237,4.0809C195.11388,229.14149,193.8571,245.7998,185.01999,267.3515z"/>
		<linearGradient id="SVGID_4_" gradientUnits="userSpaceOnUse" x1="183.30609" y1="252.8541" x2="183.30609" y2="210.59564">
			<stop  offset="0.04146" style="stop-color:#FCEE21"/>
			<stop  offset="0.61328" style="stop-color:#FBB03B"/>
			<stop  offset="0.61931" style="stop-color:#FBAE3B"/>
			<stop  offset="0.791" style="stop-color:#F6812E"/>
			<stop  offset="0.9235" style="stop-color:#F26527"/>
			<stop  offset="1" style="stop-color:#F15A24"/>
		</linearGradient>
		<path fill="url(#SVGID_4_)" d="M184.24094,250.771c-0.2932,0.95111-0.60791,1.9156-0.93561,2.8934
			c-5.75153-17.10269-6.47572-30.2276-6.19553-37.73441c0.0345-0.9556,0.0862-1.81789,0.14659-2.58669
			c0.0905-1.19121,0.20271-2.15561,0.3018-2.88011c0.15091-1.07109,0.2717-1.62669,0.2717-1.62669l-0.0087,0.2755l3.5914-0.0889
			l4.05713-0.1022l2.20308-0.05769l1.10808-0.0267c0,0,0.12071,0.5556,0.27168,1.62669
			c0.0992,0.7245,0.21124,1.6889,0.30177,2.88011c0.06895,0.85779,0.12505,1.83559,0.15948,2.9245
			C189.74666,223.388,189.06116,235.3261,184.24094,250.771z"/>
	</g>
	<g>
		<g>
			<g>
				<g>
					<polygon fill="#F1F2F2" points="229.1183,194.1996 200.65648,185.48441 200.65648,142.13229 229.1183,167.28439 					"/>
					<path fill="#E6E7E8" d="M227.429,194.4189c0,2.28951,1.8559,4.1454,4.1454,4.1454l0,0c2.2894,0,4.1454-1.8559,4.1454-4.1454
						v-30.1086h-8.2908V194.4189z"/>
					<linearGradient id="SVGID_5_" gradientUnits="userSpaceOnUse" x1="229.21585" y1="159.90695" x2="232.74854" y2="166.02576">
						<stop  offset="0" style="stop-color:#FF51B1"/>
						<stop  offset="1" style="stop-color:#861396"/>
					</linearGradient>
					<path fill="url(#SVGID_5_)" d="M229.3875,160.2942l-1.9585,4.0161h8.2908l-1.9586-4.0161
						C232.8726,158.47211,230.27609,158.47211,229.3875,160.2942z"/>
					<g>
						<polygon fill="#E6E7E8" points="236.56509,197.2542 226.58369,197.2542 227.4269,195.1756 235.7218,195.1756 						"/>
						<linearGradient id="SVGID_6_" gradientUnits="userSpaceOnUse" x1="229.63998" y1="195.48965" x2="233.5088" y2="202.19064">
							<stop  offset="0" style="stop-color:#FF51B1"/>
							<stop  offset="1" style="stop-color:#861396"/>
						</linearGradient>
						<rect x="226.58369" y="197.2542" fill="url(#SVGID_6_)" width="9.9814" height="3.1719"/>
					</g>
				</g>
				<g>
					<polygon fill="#F1F2F2" points="138.0887,194.1996 166.5506,185.48441 166.5506,142.13229 138.0887,167.28439 					"/>
					<path fill="#E6E7E8" d="M139.77811,194.4189c0,2.28951-1.856,4.1454-4.1454,4.1454l0,0c-2.28951,0-4.1454-1.8559-4.1454-4.1454
						v-30.1086h8.2908V194.4189z"/>
					<linearGradient id="SVGID_7_" gradientUnits="userSpaceOnUse" x1="133.27415" y1="159.90695" x2="136.80684" y2="166.02576">
						<stop  offset="0" style="stop-color:#FF51B1"/>
						<stop  offset="1" style="stop-color:#861396"/>
					</linearGradient>
					<path fill="url(#SVGID_7_)" d="M137.8195,160.2942l1.9586,4.0161h-8.2908l1.9585-4.0161
						C134.3344,158.47211,136.93089,158.47211,137.8195,160.2942z"/>
					<g>
						<polygon fill="#E6E7E8" points="130.642,197.2542 140.6234,197.2542 139.78011,195.1756 131.4852,195.1756 						"/>
						<linearGradient id="SVGID_8_" gradientUnits="userSpaceOnUse" x1="133.69829" y1="195.48965" x2="137.56711" y2="202.19064">
							<stop  offset="0" style="stop-color:#FF51B1"/>
							<stop  offset="1" style="stop-color:#861396"/>
						</linearGradient>
						<polygon fill="url(#SVGID_8_)" points="130.642,200.4261 140.6234,200.4261 140.6234,197.2542 130.642,197.2542 						"/>
					</g>
				</g>
			</g>
			<linearGradient id="SVGID_9_" gradientUnits="userSpaceOnUse" x1="172.17734" y1="72.81178" x2="188.41269" y2="100.93224">
				<stop  offset="0" style="stop-color:#FF51B1"/>
				<stop  offset="1" style="stop-color:#861396"/>
			</linearGradient>
			<path fill="url(#SVGID_9_)" d="M198.75372,90.6239l-10.8246-21.0083c-1.81181-3.5163-6.83942-3.5163-8.65123,0l-10.8246,21.0083
				c-0.5761,1.118-1.1167,2.2512-1.63739,3.3926h33.57521C199.87042,92.8751,199.32983,91.7419,198.75372,90.6239z"/>
			<path fill="#FFFFFF" d="M166.8159,94.0165c-4.67731,10.25349-7.11481,21.4024-7.11481,32.7017v64.14999h47.8049V126.7182
				c0-11.2993-2.43759-22.4482-7.11488-32.7017H166.8159z"/>
			<path fill="#F1F2F2" d="M176.4994,94.0165c0.2204-1.1414,0.4491-2.2746,0.6929-3.3926l4.5808-21.0083
				c0.38332-1.7581,1.10684-2.6372,1.83044-2.6372c-1.70984,0-3.41965,0.8791-4.32565,2.6372l-10.8246,21.0083
				c-0.5761,1.118-1.1167,2.2512-1.63739,3.3926c-4.67731,10.25349-7.11481,21.4024-7.11481,32.7017v64.14999h13.78751V126.7182
				C173.4886,115.4189,174.5201,104.27,176.4994,94.0165z"/>
			<path fill="#F1F2F2" d="M200.39111,94.0165c-0.52069-1.1414-1.06128-2.2746-1.63739-3.3926l-10.8246-21.0083
				c-0.90587-1.7581-2.61575-2.6372-4.32558-2.6372c0.72354,0,1.44714,0.8791,1.83051,2.6372l4.58067,21.0083
				c0.24373,1.118,0.47255,2.2512,0.69287,3.3926c1.97932,10.25349,3.01082,21.4024,3.01082,32.7017v64.14999H207.506V126.7182
				C207.506,115.4189,205.06841,104.27,200.39111,94.0165z"/>
			<linearGradient id="SVGID_10_" gradientUnits="userSpaceOnUse" x1="175.77939" y1="179.85019" x2="191.42761" y2="206.95372">
				<stop  offset="0" style="stop-color:#FF51B1"/>
				<stop  offset="1" style="stop-color:#861396"/>
			</linearGradient>
			<path fill="url(#SVGID_10_)" d="M209.8318,195.93559h-52.4566c-1.39929,0-2.5336-1.13429-2.5336-2.5336v-0.00009
				c0-1.39931,1.13431-2.5336,2.5336-2.5336h52.4566c1.39929,0,2.5336,1.13429,2.5336,2.5336v0.00009
				C212.3654,194.8013,211.23109,195.93559,209.8318,195.93559z"/>
			<polygon fill="#E6E7E8" points="202.25999,204.52 164.94,204.52 166.8,199.47 168.10001,195.94 199.10999,195.94 
				200.40997,199.47 			"/>
			<polygon fill="#CECECE" points="200.40997,199.47 166.8,199.47 168.10001,195.94 199.10999,195.94 			"/>
			<linearGradient id="SVGID_11_" gradientUnits="userSpaceOnUse" x1="177.73445" y1="197.13228" x2="189.47264" y2="217.46342">
				<stop  offset="0" style="stop-color:#FF51B1"/>
				<stop  offset="1" style="stop-color:#861396"/>
			</linearGradient>
			<rect x="164.9446" y="204.51649" fill="url(#SVGID_11_)" width="37.3179" height="5.5627"/>
			<g>
				<path fill="#F1F2F2" d="M172.42551,94.0164c0.34659-1.1413,0.70659-2.27451,1.09029-3.3926l7.20761-21.0082
					c0.6031-1.7581,1.74165-2.6372,2.88014-2.6372c-1.70984,0-3.41974,0.879-4.32565,2.6372l-10.8246,21.0082
					c-0.5761,1.1181-1.1167,2.2513-1.63739,3.3926c-4.67731,10.25359-7.11481,21.4025-7.11481,32.7017v64.15009h7.98691V126.7181
					C167.688,115.4189,169.3111,104.27,172.42551,94.0164z"/>
				<path fill="#F1F2F2" d="M200.39111,94.0164c-0.52063-1.1413-1.06134-2.27451-1.63733-3.3926l-10.82466-21.0082
					c-0.90587-1.7581-2.61568-2.6372-4.3255-2.6372c1.1385,0,2.27693,0.8791,2.88013,2.6372l7.20753,21.0082
					c0.38362,1.1181,0.74362,2.2513,1.09024,3.3926c3.11444,10.25359,4.73749,21.4025,4.73749,32.7017v64.15009h7.98698V126.7181
					C207.506,115.4189,205.06841,104.27,200.39111,94.0164z"/>
			</g>
		</g>
		<g>
			<linearGradient id="SVGID_12_" gradientUnits="userSpaceOnUse" x1="174.12857" y1="119.58598" x2="191.68251" y2="149.99028">
				<stop  offset="0" style="stop-color:#606BF1"/>
				<stop  offset="0.24075" style="stop-color:#5F5AE9"/>
				<stop  offset="0.71469" style="stop-color:#5B2ED3"/>
				<stop  offset="1" style="stop-color:#5911C5"/>
			</linearGradient>
			<path fill="url(#SVGID_12_)" d="M194.02786,148.3158H173.1792c-1.1424,0-2.0686-0.92619-2.0686-2.0686v-17.7036
				c0-6.8997,5.59331-12.4929,12.49289-12.4929h0.00006c6.89957,0,12.49286,5.5932,12.49286,12.4929v17.7036
				C196.09641,147.3896,195.17029,148.3158,194.02786,148.3158z"/>
			<path fill="#A5B7C6" d="M194.02783,149.3311H173.1792c-1.7002,0-3.0835-1.3833-3.0835-3.084v-17.7036
				c0-7.4483,6.0596-13.5079,13.50781-13.5079c7.44824,0,13.50781,6.0596,13.50781,13.5079v17.7036
				C197.11133,147.9478,195.72803,149.3311,194.02783,149.3311z M183.60352,117.0659c-6.32861,0-11.47751,5.1489-11.47751,11.4776
				v17.7036c0,0.58099,0.4726,1.0537,1.05319,1.0537h20.84863c0.58057,0,1.05322-0.4727,1.05322-1.0537v-17.7036
				C195.08105,122.2148,189.93213,117.0659,183.60352,117.0659z"/>
		</g>
		<path fill="#7281F2" d="M183.84552,126.65c0,2.5669-1.78366,4.6479-3.98392,4.6479c-2.2003,0-3.98401-2.08099-3.98401-4.6479
			c0-2.567,1.78371-4.648,3.98401-4.648C182.06186,122.002,183.84552,124.083,183.84552,126.65z"/>
	</g>
</g>
</svg>
